<svg width="188" height="143" viewBox="0 0 188 143" fill="none" xmlns="http://www.w3.org/2000/svg">
<g clip-path="url(#clip0_76_3300)">
<path d="M65.1422 139.268L66.9892 139.82L70.0021 132.977L67.2761 132.163L65.1422 139.268Z" fill="#FFB8B8"/>
<path d="M64.8516 138.526L68.4892 139.613L68.4893 139.613C69.1041 139.797 69.6205 140.216 69.925 140.78C70.2295 141.343 70.2971 142.004 70.113 142.617L70.0904 142.693L64.1348 140.913L64.8516 138.526Z" fill="#2F2E41"/>
<path d="M82.695 140.774L84.5054 140.112L82.8068 132.832L80.135 133.809L82.695 140.774Z" fill="#FFB8B8"/>
<path d="M82.0166 140.353L85.5817 139.049L85.5819 139.049C86.1845 138.829 86.8501 138.856 87.4324 139.125C88.0146 139.395 88.4659 139.883 88.6868 140.484L88.7139 140.558L82.8767 142.693L82.0166 140.353Z" fill="#2F2E41"/>
<path d="M68.2391 126.88L65.0937 137.233L68.8681 138.331L72.4854 128.762L68.2391 126.88Z" fill="#2F2E41"/>
<path d="M78.1472 129.233L80.9783 138.959L84.9099 137.076L82.0791 127.978L78.1472 129.233Z" fill="#2F2E41"/>
<path d="M76.674 130.987C74.1563 130.976 71.6445 130.745 69.1672 130.297L69.1041 130.284V127.891L67.6666 127.732L68.7886 123.735C68.2657 117.578 69.0088 109.78 69.2493 107.535C69.3044 107.009 69.3406 106.714 69.3406 106.714L70.6021 96.0184L72.7129 94.075L73.6719 94.6974L75.4506 96.4715C77.5182 101.547 79.1588 106.324 79.1692 106.631L86.103 128.794L86.0563 128.826C83.6486 130.522 79.9784 130.987 76.674 130.987Z" fill="#3F3D56"/>
<path opacity="0.2" d="M71.4967 100.762L71.0119 103.781L74.2941 105.131L71.4967 100.762Z" fill="black"/>
<path d="M77.9371 94.0592H70.3485C70.1924 94.059 70.0427 93.9971 69.9323 93.887C69.822 93.7769 69.7599 93.6277 69.7597 93.472V90.2095C69.762 89.0516 70.2248 87.9418 71.0465 87.1239C71.8683 86.3059 72.9818 85.8465 74.1428 85.8465C75.3037 85.8465 76.4173 86.3059 77.239 87.1239C78.0607 87.9418 78.5235 89.0516 78.5258 90.2095V93.472C78.5256 93.6277 78.4636 93.7769 78.3532 93.887C78.2428 93.9971 78.0931 94.059 77.9371 94.0592Z" fill="#2F2E41"/>
<path d="M74.9806 93.8627C76.7554 93.8627 78.1941 92.4277 78.1941 90.6575C78.1941 88.8874 76.7554 87.4524 74.9806 87.4524C73.2058 87.4524 71.7671 88.8874 71.7671 90.6575C71.7671 92.4277 73.2058 93.8627 74.9806 93.8627Z" fill="#FFB8B8"/>
<path d="M79.5627 90.5358H74.9225L74.8749 89.8713L74.637 90.5358H73.9225L73.8282 89.2188L73.3567 90.5358H71.9742V90.4705C71.9752 89.5537 72.3408 88.6747 72.9908 88.0264C73.6408 87.3781 74.5221 87.0134 75.4413 87.0123H76.0955C77.0148 87.0134 77.8961 87.378 78.5461 88.0264C79.1961 88.6747 79.5617 89.5537 79.5627 90.4705V90.5358Z" fill="#2F2E41"/>
<path d="M74.8845 94.6682C74.8496 94.6682 74.8147 94.6651 74.7803 94.659L71.3826 94.0611V88.4601H75.1229L75.0303 88.5678C73.7419 90.0665 74.7125 92.4966 75.4058 93.8118C75.4569 93.9081 75.4797 94.0169 75.4715 94.1256C75.4634 94.2342 75.4246 94.3384 75.3597 94.4261C75.3053 94.501 75.2339 94.5621 75.1513 94.6042C75.0687 94.6463 74.9773 94.6682 74.8845 94.6682Z" fill="#2F2E41"/>
<path d="M80.8799 108.206H79.0174C78.9577 108.206 78.9 108.184 78.8558 108.144C78.8115 108.104 78.7838 108.049 78.7782 107.99L78.4054 104.178H81.492L81.1191 107.99C81.1135 108.049 81.0859 108.104 81.0416 108.144C80.9974 108.184 80.9397 108.206 80.8799 108.206Z" fill="#B27092"/>
<path d="M81.487 104.658H78.4103C78.3466 104.658 78.2855 104.633 78.2404 104.588C78.1954 104.543 78.17 104.482 78.17 104.418V103.843C78.17 103.779 78.1954 103.718 78.2404 103.673C78.2855 103.628 78.3466 103.603 78.4103 103.603H81.487C81.5508 103.603 81.6118 103.628 81.6569 103.673C81.702 103.718 81.7273 103.779 81.7274 103.843V104.418C81.7273 104.482 81.702 104.543 81.6569 104.588C81.6118 104.633 81.5508 104.658 81.487 104.658Z" fill="#2F2E41"/>
<path opacity="0.2" d="M69.4187 106.566C70.2739 107.554 71.434 108.23 72.7166 108.489C73.9991 108.747 75.3315 108.574 76.5042 107.995L77.2037 107.649L69.4187 106.566Z" fill="black"/>
<path d="M80.6009 105.828C80.4575 105.668 80.2806 105.54 80.0826 105.455C79.8846 105.37 79.6703 105.33 79.4548 105.336C79.2393 105.343 79.0278 105.396 78.8353 105.493C78.6428 105.59 78.4739 105.728 78.3406 105.896L75.096 104.988L74.0615 106.82L78.6616 108.039C78.961 108.243 79.3253 108.331 79.6855 108.286C80.0456 108.241 80.3765 108.065 80.6156 107.793C80.8546 107.52 80.9852 107.17 80.9824 106.808C80.9797 106.446 80.844 106.097 80.6009 105.828Z" fill="#FFB8B8"/>
<path d="M72.8581 107.861C71.3155 107.862 69.2283 106.959 66.7505 105.212C66.6124 105.117 66.4957 104.994 66.4077 104.851C66.3198 104.708 66.2625 104.549 66.2396 104.383C66.0568 103.228 67.1862 101.667 67.297 101.517L68.4843 98.265C68.4979 98.2121 68.8806 96.8051 69.8411 96.3045C70.0434 96.201 70.2657 96.1425 70.4928 96.1328C70.7199 96.1232 70.9463 96.1627 71.1567 96.2486C72.9864 96.9131 71.5577 102.045 71.3615 102.718L73.7857 103.856L75.3251 104.834L77.4332 105.054L76.8608 107.696L73.6592 107.768C73.3971 107.832 73.128 107.863 72.8581 107.861Z" fill="#3F3D56"/>
<path d="M187.931 83.7591C187.929 80.6716 187.239 77.6232 185.91 74.8347C184.582 72.0461 182.648 69.5873 180.248 67.6364C177.849 65.6854 175.045 64.2913 172.039 63.5548C169.033 62.8184 165.9 62.7582 162.867 63.3785C159.835 63.9988 156.979 65.2842 154.506 67.1414C152.033 68.9987 150.006 71.3813 148.57 74.1167C147.135 76.8521 146.327 79.8718 146.206 82.9569C146.085 86.042 146.654 89.1153 147.871 91.9542C147.85 91.9315 147.829 91.9095 147.809 91.8868C148.736 94.0417 150.021 96.0252 151.61 97.7534C151.615 97.7586 151.62 97.7637 151.625 97.7689C151.753 97.9083 151.882 98.0469 152.014 98.1828C153.921 100.167 156.204 101.753 158.731 102.85C161.258 103.947 163.978 104.532 166.734 104.571L166.029 142.776H168.207L167.766 117.561L170.918 115.906L170.437 114.995L167.746 116.408L167.539 104.569C172.99 104.445 178.176 102.197 181.986 98.3083C185.797 94.4193 187.931 89.1972 187.931 83.7591Z" fill="#E6E6E6"/>
<path d="M125.987 73.6133C125.985 69.9951 125.176 66.4226 123.619 63.1547C122.062 59.8867 119.795 57.0052 116.983 54.7189C114.172 52.4326 110.885 50.7987 107.362 49.9357C103.84 49.0726 100.168 49.002 96.6145 49.729C93.0608 50.456 89.7137 51.9623 86.8158 54.1389C83.9179 56.3154 81.5417 59.1077 79.8593 62.3133C78.177 65.519 77.2307 69.0577 77.089 72.6732C76.9472 76.2887 77.6136 79.8903 79.0399 83.2172C79.016 83.1907 78.9913 83.1649 78.9675 83.1383C80.0538 85.6637 81.5598 87.9881 83.422 90.0135C83.4276 90.0196 83.4333 90.0255 83.4389 90.0316C83.5892 90.195 83.7403 90.3574 83.8949 90.5166C86.1299 92.8418 88.8058 94.7009 91.7672 95.9861C94.7286 97.2713 97.9164 97.957 101.146 98.0033L100.319 142.776H102.872L102.356 113.226L106.049 111.286L105.486 110.219L102.332 111.875L102.089 98.001C108.477 97.8549 114.554 95.2214 119.02 90.6638C123.486 86.1061 125.987 79.9863 125.987 73.6133Z" fill="#E6E6E6"/>
<path d="M55.735 64.0702C55.7328 59.9527 54.8123 55.8873 53.0402 52.1685C51.2682 48.4496 48.6889 45.1705 45.4893 42.5687C42.2896 39.9669 38.5498 38.1076 34.5407 37.1255C30.5317 36.1434 26.3538 36.0631 22.3097 36.8904C18.2657 37.7176 14.4568 39.4318 11.159 41.9087C7.86126 44.3855 5.15719 47.5631 3.24274 51.211C1.32829 54.859 0.251405 58.886 0.0901158 63.0004C-0.0711732 67.1147 0.687171 71.2133 2.3102 74.9992C2.28298 74.9691 2.25486 74.9397 2.22778 74.9094C3.46404 77.7833 5.17786 80.4284 7.297 82.7332C7.30333 82.7402 7.30983 82.747 7.31617 82.7539C7.48716 82.9398 7.65912 83.1247 7.83506 83.3058C10.3785 85.9518 13.4236 88.0675 16.7936 89.53C20.1636 90.9925 23.7913 91.7728 27.4661 91.8254L26.5256 142.776H29.4312L28.8432 109.148L33.0463 106.941L32.4051 105.726L28.8163 107.611L28.5402 91.8229C35.8094 91.6567 42.7248 88.6598 47.8071 83.4733C52.8894 78.2868 55.7349 71.3225 55.735 64.0702Z" fill="#E6E6E6"/>
<path d="M160.199 36.3095C170.252 36.3095 178.401 28.1814 178.401 18.1548C178.401 8.12816 170.252 -1.90735e-06 160.199 -1.90735e-06C150.146 -1.90735e-06 141.997 8.12816 141.997 18.1548C141.997 28.1814 150.146 36.3095 160.199 36.3095Z" fill="#FF6584"/>
<path d="M51.9877 76.0029C72.1353 76.0029 88.4681 59.7125 88.4681 39.6173C88.4681 19.5221 72.1353 3.23174 51.9877 3.23174C31.8401 3.23174 15.5073 19.5221 15.5073 39.6173C15.5073 59.7125 31.8401 76.0029 51.9877 76.0029Z" fill="#B27092"/>
<path opacity="0.2" d="M25.0517 15.3146C21.6489 23.2537 21.1873 32.1409 23.7494 40.3882C26.3114 48.6355 31.7302 55.7054 39.0375 60.3346C46.3447 64.9639 55.0642 66.8507 63.6378 65.658C72.2114 64.4653 80.0805 60.2708 85.8389 53.824C83.7602 58.6745 80.649 63.0162 76.721 66.5483C72.793 70.0805 68.142 72.7186 63.0903 74.2799C58.0385 75.8413 52.7069 76.2885 47.4646 75.5906C42.2224 74.8927 37.195 73.0664 32.7307 70.2382C28.2664 67.41 24.4719 63.6475 21.6102 59.2115C18.7485 54.7754 16.888 49.7719 16.1576 44.5475C15.4271 39.3231 15.8443 34.0027 17.38 28.955C18.9158 23.9074 21.5335 19.2531 25.0517 15.3146Z" fill="black"/>
<path d="M52.0879 39.6173H52.1882L53.9922 142.776H50.1837L52.0879 39.6173Z" fill="#3F3D56"/>
<path d="M57.8899 94.2154L51.8596 97.382L52.7 98.9741L58.7303 95.8075L57.8899 94.2154Z" fill="#3F3D56"/>
<path d="M107.786 141.811C107.786 141.811 107.917 139.061 110.615 139.38L107.786 141.811Z" fill="#3F3D56"/>
<path d="M107.023 139.194C107.769 139.194 108.374 138.591 108.374 137.847C108.374 137.103 107.769 136.5 107.023 136.5C106.277 136.5 105.673 137.103 105.673 137.847C105.673 138.591 106.277 139.194 107.023 139.194Z" fill="#B27092"/>
<path d="M107.185 140.115H106.804V142.776H107.185V140.115Z" fill="#3F3D56"/>
<path d="M14.2022 141.431C14.2022 141.431 14.3338 138.681 17.0321 139L14.2022 141.431Z" fill="#3F3D56"/>
<path d="M13.4398 138.814C14.1857 138.814 14.7903 138.211 14.7903 137.467C14.7903 136.723 14.1857 136.12 13.4398 136.12C12.694 136.12 12.0894 136.723 12.0894 137.467C12.0894 138.211 12.694 138.814 13.4398 138.814Z" fill="#B27092"/>
<path d="M13.6013 139.735H13.2201V142.396H13.6013V139.735Z" fill="#3F3D56"/>
<path d="M36.3116 141.621C36.3116 141.621 36.4432 138.871 39.1414 139.19L36.3116 141.621Z" fill="#3F3D56"/>
<path d="M35.5492 139.004C36.295 139.004 36.8996 138.401 36.8996 137.657C36.8996 136.913 36.295 136.31 35.5492 136.31C34.8033 136.31 34.1987 136.913 34.1987 137.657C34.1987 138.401 34.8033 139.004 35.5492 139.004Z" fill="#B27092"/>
<path d="M35.7106 139.925H35.3294V142.586H35.7106V139.925Z" fill="#3F3D56"/>
<path d="M95.1101 17.5894L97.8189 15.4285C95.7145 15.197 94.8499 16.3417 94.496 17.2477C92.852 16.5668 91.0623 17.4591 91.0623 17.4591L96.4822 19.4216C96.2087 18.6932 95.7328 18.0576 95.1101 17.5894Z" fill="#3F3D56"/>
<path d="M136.306 39.6012L139.015 37.4403C136.91 37.2087 136.046 38.3534 135.692 39.2594C134.048 38.5785 132.258 39.4709 132.258 39.4709L137.678 41.4333C137.404 40.7049 136.928 40.0694 136.306 39.6012Z" fill="#3F3D56"/>
<path d="M91.8733 58.3845L94.5821 56.2236C92.4777 55.992 91.6131 57.1367 91.2592 58.0428C89.6152 57.3619 87.8255 58.2542 87.8255 58.2542L93.2453 60.2167C92.9719 59.4883 92.496 58.8527 91.8733 58.3845Z" fill="#3F3D56"/>
<path d="M144.738 142.81C144.738 142.81 144.869 140.059 147.568 140.379L144.738 142.81Z" fill="#3F3D56"/>
<path d="M119.388 142.81C119.388 142.81 119.52 140.059 122.218 140.379L119.388 142.81Z" fill="#3F3D56"/>
<path d="M26.9485 142.81C26.9485 142.81 27.0801 140.059 29.7783 140.379L26.9485 142.81Z" fill="#3F3D56"/>
<path d="M156.174 142.81C156.174 142.81 156.305 140.059 159.003 140.379L156.174 142.81Z" fill="#3F3D56"/>
<path d="M150.837 142.81C150.837 142.81 150.969 140.059 153.667 140.379L150.837 142.81Z" fill="#3F3D56"/>
<path d="M139.828 142.81C139.828 142.81 139.697 140.059 136.998 140.379L139.828 142.81Z" fill="#3F3D56"/>
<path d="M95.9907 142.81C95.9907 142.81 95.8591 140.059 93.1609 140.379L95.9907 142.81Z" fill="#3F3D56"/>
<path d="M59.5866 142.81C59.5866 142.81 59.455 140.059 56.7568 140.379L59.5866 142.81Z" fill="#3F3D56"/>
<path d="M20.8953 142.81C20.8953 142.81 20.7637 140.059 18.0655 140.379L20.8953 142.81Z" fill="#3F3D56"/>
<path d="M167.655 142.81C167.655 142.81 167.524 140.059 164.826 140.379L167.655 142.81Z" fill="#3F3D56"/>
<path d="M151.264 143C151.264 143 151.132 140.249 148.434 140.569L151.264 143Z" fill="#3F3D56"/>
<path d="M188 142.45H0V142.873H188V142.45Z" fill="#3F3D56"/>
</g>
<defs>
<clipPath id="clip0_76_3300">
<rect width="188" height="143" fill="white"/>
</clipPath>
</defs>
</svg>
