<svg width="42" height="42" viewBox="0 0 42 42" fill="none" xmlns="http://www.w3.org/2000/svg">
    <path d="M5.25 20.125C4.76875 20.125 4.375 20.5188 4.375 21C4.375 21.4813 4.76875 21.875 5.25 21.875H6.125V20.125H5.25Z" fill="#1A1A1A"/>
    <path d="M5.25 24.5C4.76875 24.5 4.375 24.8938 4.375 25.375C4.375 25.8563 4.76875 26.25 5.25 26.25H6.125V24.5H5.25Z" fill="#1A1A1A"/>
    <path d="M5.25 28.875C4.76875 28.875 4.375 29.2688 4.375 29.75C4.375 30.2313 4.76875 30.625 5.25 30.625H6.125V28.875H5.25Z" fill="#1A1A1A"/>
    <path d="M5.25 33.25C4.76875 33.25 4.375 33.6438 4.375 34.125C4.375 34.6063 4.76875 35 5.25 35H6.125V33.25H5.25Z" fill="#1A1A1A"/>
    <path d="M5.25 15.75C4.76875 15.75 4.375 16.1438 4.375 16.625C4.375 17.1063 4.76875 17.5 5.25 17.5H6.125V15.75H5.25Z" fill="#1A1A1A"/>
    <path d="M5.25 11.375C4.76875 11.375 4.375 11.7688 4.375 12.25C4.375 12.7313 4.76875 13.125 5.25 13.125H6.125V11.375H5.25Z" fill="#1A1A1A"/>
    <path d="M5.25 7C4.76875 7 4.375 7.39375 4.375 7.875C4.375 8.35625 4.76875 8.75 5.25 8.75H6.125V7H5.25Z" fill="#1A1A1A"/>
    <path d="M8.75 40.25H28C29.4438 40.25 30.625 39.0688 30.625 37.625V4.375C30.625 2.93125 29.4438 1.75 28 1.75H8.75C7.30625 1.75 6.125 2.93125 6.125 4.375V7H8.75C9.23125 7 9.625 7.39375 9.625 7.875C9.625 8.35625 9.23125 8.75 8.75 8.75H6.125V11.375H8.75C9.23125 11.375 9.625 11.7688 9.625 12.25C9.625 12.7313 9.23125 13.125 8.75 13.125H6.125V15.75H8.75C9.23125 15.75 9.625 16.1438 9.625 16.625C9.625 17.1063 9.23125 17.5 8.75 17.5H6.125V20.125H8.75C9.23125 20.125 9.625 20.5188 9.625 21C9.625 21.4813 9.23125 21.875 8.75 21.875H6.125V24.5H8.75C9.23125 24.5 9.625 24.8938 9.625 25.375C9.625 25.8563 9.23125 26.25 8.75 26.25H6.125V28.875H8.75C9.23125 28.875 9.625 29.2688 9.625 29.75C9.625 30.2313 9.23125 30.625 8.75 30.625H6.125V33.25H8.75C9.23125 33.25 9.625 33.6438 9.625 34.125C9.625 34.6063 9.23125 35 8.75 35H6.125V37.625C6.125 39.0688 7.30625 40.25 8.75 40.25ZM13.125 8.75H24.5C24.9813 8.75 25.375 9.14375 25.375 9.625C25.375 10.1063 24.9813 10.5 24.5 10.5H13.125C12.6438 10.5 12.25 10.1063 12.25 9.625C12.25 9.14375 12.6438 8.75 13.125 8.75ZM13.125 12.25H24.5C24.9813 12.25 25.375 12.6438 25.375 13.125C25.375 13.6063 24.9813 14 24.5 14H13.125C12.6438 14 12.25 13.6063 12.25 13.125C12.25 12.6438 12.6438 12.25 13.125 12.25ZM13.125 15.75H21C21.4813 15.75 21.875 16.1438 21.875 16.625C21.875 17.1063 21.4813 17.5 21 17.5H13.125C12.6438 17.5 12.25 17.1063 12.25 16.625C12.25 16.1438 12.6438 15.75 13.125 15.75Z" fill="#1A1A1A"/>
</svg>
