<svg width="35" height="35" viewBox="0 0 35 35" fill="none" xmlns="http://www.w3.org/2000/svg">
    <g clip-path="url(#clip0_154_3362)">
        <path d="M17.5 35C27.165 35 35 27.165 35 17.5C35 7.83502 27.165 0 17.5 0C7.83502 0 0 7.83502 0 17.5C0 27.165 7.83502 35 17.5 35Z" fill="#64DF62"/>
        <path d="M13.0284 25.3943L22.0268 34.3927C29.4795 32.4054 35 25.6151 35 17.5C35 17.3344 35 17.1688 35 17.0031L27.9337 10.489L13.0284 25.3943Z" fill="#64DF62"/>
        <path d="M17.9416 21.4195C18.7145 22.1924 18.7145 23.5173 17.9416 24.2902L16.3407 25.8912C15.5678 26.664 14.2429 26.664 13.47 25.8912L6.45899 18.8249C5.68612 18.052 5.68612 16.7271 6.45899 15.9543L8.05993 14.3533C8.8328 13.5804 10.1577 13.5804 10.9306 14.3533L17.9416 21.4195Z" fill="white"/>
        <path d="M24.0694 9.21924C24.8422 8.44637 26.1672 8.44637 26.94 9.21924L28.541 10.8202C29.3138 11.5931 29.3138 12.918 28.541 13.6908L16.3959 25.7808C15.623 26.5536 14.2981 26.5536 13.5252 25.7808L11.9243 24.1798C11.1514 23.4069 11.1514 22.082 11.9243 21.3091L24.0694 9.21924Z" fill="white"/>
    </g>
    <defs>
        <clipPath id="clip0_154_3362">
            <rect width="35" height="35" fill="white"/>
        </clipPath>
    </defs>
</svg>
