<svg width="40" height="40" viewBox="0 0 40 40" fill="none" xmlns="http://www.w3.org/2000/svg">
    <g clip-path="url(#clip0_154_3414)">
        <path d="M38.9215 17.3981C38.9206 17.3972 38.9197 17.3962 38.9187 17.3953L22.6019 1.0791C21.9064 0.383301 20.9817 0 19.9981 0C19.0146 0 18.0899 0.382996 17.3941 1.0788L1.0858 17.3868C1.0803 17.3923 1.07481 17.3981 1.06932 17.4036C-0.358907 18.84 -0.356465 21.1707 1.07633 22.6035C1.73094 23.2584 2.5955 23.6377 3.51988 23.6774C3.55741 23.681 3.59526 23.6829 3.6334 23.6829H4.28373V35.6906C4.28373 38.0667 6.21702 40 8.59373 40H14.9774C15.6244 40 16.1493 39.4754 16.1493 38.8281V29.4141C16.1493 28.3298 17.0312 27.4478 18.1155 27.4478H21.8808C22.9651 27.4478 23.847 28.3298 23.847 29.4141V38.8281C23.847 39.4754 24.3716 40 25.0189 40H31.4026C33.7793 40 35.7126 38.0667 35.7126 35.6906V23.6829H36.3156C37.2989 23.6829 38.2235 23.2999 38.9197 22.6041C40.354 21.1688 40.3546 18.8342 38.9215 17.3981Z" fill="#D9D9D9"/>
    </g>
    <defs>
        <clipPath id="clip0_154_3414">
            <rect width="40" height="40" fill="white"/>
        </clipPath>
    </defs>
</svg>
