<svg width="50" height="50" viewBox="0 0 50 50" fill="none" xmlns="http://www.w3.org/2000/svg">
<path d="M6.24998 23.9583C5.67706 23.9583 5.20831 24.4271 5.20831 25C5.20831 25.5729 5.67706 26.0417 6.24998 26.0417H7.29165V23.9583H6.24998Z" fill="#B27092"/>
<path d="M6.24998 29.1667C5.67706 29.1667 5.20831 29.6354 5.20831 30.2084C5.20831 30.7813 5.67706 31.25 6.24998 31.25H7.29165V29.1667H6.24998Z" fill="#B27092"/>
<path d="M6.24998 34.375C5.67706 34.375 5.20831 34.8438 5.20831 35.4167C5.20831 35.9896 5.67706 36.4583 6.24998 36.4583H7.29165V34.375H6.24998Z" fill="#B27092"/>
<path d="M6.24998 39.5833C5.67706 39.5833 5.20831 40.0521 5.20831 40.625C5.20831 41.1979 5.67706 41.6667 6.24998 41.6667H7.29165V39.5833H6.24998Z" fill="#B27092"/>
<path d="M6.24998 18.75C5.67706 18.75 5.20831 19.2188 5.20831 19.7917C5.20831 20.3646 5.67706 20.8333 6.24998 20.8333H7.29165V18.75H6.24998Z" fill="#B27092"/>
<path d="M6.24998 13.5417C5.67706 13.5417 5.20831 14.0104 5.20831 14.5834C5.20831 15.1563 5.67706 15.625 6.24998 15.625H7.29165V13.5417H6.24998Z" fill="#B27092"/>
<path d="M6.24998 8.33334C5.67706 8.33334 5.20831 8.80209 5.20831 9.37501C5.20831 9.94793 5.67706 10.4167 6.24998 10.4167H7.29165V8.33334H6.24998Z" fill="#B27092"/>
<path d="M10.4166 47.9167H33.3333C35.052 47.9167 36.4583 46.5104 36.4583 44.7917V5.20834C36.4583 3.48959 35.052 2.08334 33.3333 2.08334H10.4166C8.69788 2.08334 7.29163 3.48959 7.29163 5.20834V8.33334H10.4166C10.9895 8.33334 11.4583 8.80209 11.4583 9.37501C11.4583 9.94793 10.9895 10.4167 10.4166 10.4167H7.29163V13.5417H10.4166C10.9895 13.5417 11.4583 14.0104 11.4583 14.5833C11.4583 15.1563 10.9895 15.625 10.4166 15.625H7.29163V18.75H10.4166C10.9895 18.75 11.4583 19.2188 11.4583 19.7917C11.4583 20.3646 10.9895 20.8333 10.4166 20.8333H7.29163V23.9583H10.4166C10.9895 23.9583 11.4583 24.4271 11.4583 25C11.4583 25.5729 10.9895 26.0417 10.4166 26.0417H7.29163V29.1667H10.4166C10.9895 29.1667 11.4583 29.6354 11.4583 30.2083C11.4583 30.7813 10.9895 31.25 10.4166 31.25H7.29163V34.375H10.4166C10.9895 34.375 11.4583 34.8438 11.4583 35.4167C11.4583 35.9896 10.9895 36.4583 10.4166 36.4583H7.29163V39.5833H10.4166C10.9895 39.5833 11.4583 40.0521 11.4583 40.625C11.4583 41.1979 10.9895 41.6667 10.4166 41.6667H7.29163V44.7917C7.29163 46.5104 8.69788 47.9167 10.4166 47.9167ZM15.625 10.4167H29.1666C29.7395 10.4167 30.2083 10.8854 30.2083 11.4583C30.2083 12.0313 29.7395 12.5 29.1666 12.5H15.625C15.052 12.5 14.5833 12.0313 14.5833 11.4583C14.5833 10.8854 15.052 10.4167 15.625 10.4167ZM15.625 14.5833H29.1666C29.7395 14.5833 30.2083 15.0521 30.2083 15.625C30.2083 16.1979 29.7395 16.6667 29.1666 16.6667H15.625C15.052 16.6667 14.5833 16.1979 14.5833 15.625C14.5833 15.0521 15.052 14.5833 15.625 14.5833ZM15.625 18.75H25C25.5729 18.75 26.0416 19.2188 26.0416 19.7917C26.0416 20.3646 25.5729 20.8333 25 20.8333H15.625C15.052 20.8333 14.5833 20.3646 14.5833 19.7917C14.5833 19.2188 15.052 18.75 15.625 18.75Z" fill="#B27092"/>
<path d="M40.6645 47.1604C40.7927 47.6083 41.202 47.9167 41.6666 47.9167C42.1312 47.9167 42.5406 47.6083 42.6687 47.1604C42.6687 47.1604 44.7916 39.6792 44.7916 39.5833V14.5833H38.5416V39.5833C38.5416 39.6802 40.6645 47.1604 40.6645 47.1604Z" fill="#B27092"/>
<path d="M44.7916 8.33334C44.7916 6.61043 43.3895 5.20834 41.6666 5.20834C39.9437 5.20834 38.5416 6.61043 38.5416 8.33334V12.5H44.7916V8.33334Z" fill="#B27092"/>
</svg>
